#!OML:ASF X:\für Bonn\!DataBase\2005_08_10_Bjorn_Final\c3d\bjorn.ASF
:FULLY-SPECIFIED
:DEGREES
126
root 1.77762 19.6618 3.53032 -197.329 -35.2495 -166.936
lowerback 10.7269 -2.28818 -1.5062
upperback 13.5604 -4.85607 -0.709052
thorax 8.50765 -3.25423 0.124367
lowerneck -9.25344 -5.19949 -0.192915
upperneck 15.7971 -9.52431 10.0255
head 6.86945 -4.07778 2.36735
rclavicle 9.46215e-014 -1.11319e-014
rhumerus -44.8352 2.61511 -84.2597
rradius 32.1081
rwrist 14.7038
rhand -7.50353 13.6206
rfingers 7.12502
rthumb 18.3865 -15.5305
lclavicle 9.46215e-014 -1.11319e-014
lhumerus 20.7404 -14.7122 85.6149
lradius 103.04
lwrist 1.295
lhand -38.6795 -26.3494
lfingers 7.12502
lthumb -11.6946 3.3042
rfemur -50.5791 -7.59445 21.8774
rtibia 93.0974
rfoot 2.93358 1.982
rtoes -18.2867
lfemur 3.14922 -8.68036 -9.49532
ltibia 16.3039
lfoot -1.74412 -20.3537
ltoes 7.28487
127
root 1.71837 19.6555 3.49314 -196.669 -34.6358 -167.246
lowerback 9.55713 -2.4719 -1.11393
upperback 13.0319 -4.92182 -0.573515
thorax 8.53987 -3.18786 0.00621884
lowerneck -9.00621 -4.87583 -0.0521845
upperneck 16.5796 -8.95781 8.82804
head 6.97722 -3.86688 2.02043
rclavicle -2.54444e-014 3.81667e-014
rhumerus -44.6851 3.22662 -84.0598
rradius 32.6775
rwrist 13.873
rhand -7.54043 13.5242
rfingers 7.12502
rthumb 18.351 -15.6302
lclavicle -2.54444e-014 3.81667e-014
lhumerus 18.4222 -14.5368 85.2911
lradius 101.468
lwrist 1.81939
lhand -38.3248 -26.1289
lfingers 7.12502
lthumb -11.3526 3.54379
rfemur -48.6436 -7.92589 21.9813
rtibia 90.9884
rfoot 2.57494 1.40094
rtoes -19.2799
lfemur 2.67644 -7.09203 -9.37681
ltibia 16.832
lfoot -1.75706 -21.3893
ltoes 8.36285
128
root 1.66048 19.6472 3.45344 -195.967 -34.0089 -167.532
lowerback 8.35082 -2.64412 -0.705008
upperback 12.47 -4.98112 -0.419051
thorax 8.56322 -3.11817 -0.104382
lowerneck -8.68183 -4.55536 0.136407
upperneck 17.2995 -8.37887 7.56535
head 7.05517 -3.66499 1.64542
rclavicle 9.66093e-014 -1.59028e-014
rhumerus -44.4749 3.76538 -83.796
rradius 33.114
rwrist 13.0508
rhand -7.58921 13.4848
rfingers 7.12502
rthumb 18.3041 -15.674
lclavicle 9.66093e-014 -1.59028e-014
lhumerus 16.0318 -14.4706 84.9786
lradius 99.8426
lwrist 2.52485
lhand -37.8637 -26.0857
lfingers 7.12502
lthumb -10.9078 3.61102
rfemur -46.7648 -8.21689 22.1049
rtibia 88.8326
rfoot 2.13218 0.897398
rtoes -20.5042
lfemur 2.09238 -5.52972 -9.24768
ltibia 17.4719
lfoot -1.89417 -22.4172
ltoes 9.16432
129
root 1.60441 19.6372 3.41062 -195.29 -33.3928 -167.805
lowerback 7.17102 -2.78972 -0.283524
upperback 11.9141 -5.02547 -0.255439
thorax 8.58613 -3.04593 -0.213498
lowerneck -8.39277 -4.25482 0.347924
upperneck 18.007 -7.8217 6.26946
head 7.14406 -3.48157 1.24975
rclavicle 5.4467e-014 -1.27222e-014
rhumerus -44.1881 4.12749 -83.4641
rradius 33.3972
rwrist 12.313
rhand -7.64994 13.6041
rfingers 7.12502
rthumb 18.2456 -15.5601
lclavicle 5.4467e-014 -1.27222e-014
lhumerus 13.5535 -14.548 84.63
lradius 98.279
lwrist 3.44458
lhand -37.3417 -26.3312
lfingers 7.12502
lthumb -10.4043 3.39138
rfemur -44.8597 -8.50315 22.2202
rtibia 86.635
rfoot 1.61861 0.460154
rtoes -21.8963
lfemur 1.54358 -4.0351 -9.13531
ltibia 18.0897
lfoot -1.99672 -23.3823
ltoes 10.0108
130
root 1.54853 19.6259 3.36591 -194.582 -32.759 -168.082
lowerback 5.95147 -2.92258 0.101988
upperback 11.3694 -5.07661 -0.0439203
thorax 8.65977 -2.98727 -0.259147
lowerneck -8.21567 -3.96023 0.52172
upperneck 18.7272 -7.2459 4.89087
head 7.26423 -3.30151 0.829004
rclavicle -4.29375e-014 -6.36111e-015
rhumerus -43.7734 4.53092 -83.0166
rradius 33.6044
rwrist 11.6436
rhand -7.67581 13.7856
rfingers 7.12502
rthumb 18.2207 -15.381
lclavicle -4.29375e-014 -6.36111e-015
lhumerus 11.1538 -14.7181 84.2784
lradius 96.6946
lwrist 4.5771
lhand -36.7404 -26.6332
lfingers 7.12502
lthumb -9.82423 3.11765
rfemur -42.987 -8.72938 22.3231
rtibia 84.3924
rfoot 1.10133 0.154365
rtoes -22.5444
lfemur 0.977985 -2.58725 -9.04572
ltibia 18.7033
lfoot -2.06725 -24.3149
ltoes 11.0256
131
root 1.49138 19.6162 3.31967 -193.835 -32.108 -168.416
lowerback 4.74265 -3.02279 0.487464
upperback 10.8007 -5.09498 0.138518
thorax 8.70395 -2.9135 -0.33427
lowerneck -7.97174 -3.68263 0.692582
upperneck 19.3436 -6.69041 3.55608
head 7.35115 -3.1402 0.419975
rclavicle 4.37326e-014 -6.20208e-014
rhumerus -43.352 4.84591 -82.5406
rradius 33.7548
rwrist 10.9852
rhand -7.64254 13.9692
rfingers 7.12502
rthumb 18.2528 -15.1944
lclavicle 4.37326e-014 -6.20208e-014
lhumerus 8.70679 -15.1139 83.868
lradius 95.1227
lwrist 5.84888
lhand -36.2098 -27.0988
lfingers 7.12502
lthumb -9.31222 2.67554
rfemur -41.1378 -8.93665 22.3526
rtibia 82.1159
rfoot 0.591125 0.0617008
rtoes -23.1329
lfemur 0.441423 -1.12806 -9.03622
ltibia 19.2808
lfoot -2.11813 -25.195
ltoes 11.9852
